<?xml version="1.0" encoding="UTF-8" standalone="no"?>
<svg
   id="Layer_1"
   data-name="Layer 1"
   viewBox="0 0 408.97 334.33"
   version="1.1"
   sodipodi:docname="Age_of_Consent_-_Central_America.svg"
   inkscape:version="1.1.2 (0a00cf5339, 2022-02-04)"
   xmlns:inkscape="http://www.inkscape.org/namespaces/inkscape"
   xmlns:sodipodi="http://sodipodi.sourceforge.net/DTD/sodipodi-0.dtd"
   xmlns="http://www.w3.org/2000/svg"
   xmlns:svg="http://www.w3.org/2000/svg">
  <sodipodi:namedview
     id="namedview21"
     pagecolor="#ffffff"
     bordercolor="#666666"
     borderopacity="1.0"
     inkscape:pageshadow="2"
     inkscape:pageopacity="0.0"
     inkscape:pagecheckerboard="0"
     showgrid="false"
     inkscape:zoom="2.578291"
     inkscape:cx="204.39896"
     inkscape:cy="167.16499"
     inkscape:window-width="1920"
     inkscape:window-height="1008"
     inkscape:window-x="0"
     inkscape:window-y="0"
     inkscape:window-maximized="1"
     inkscape:current-layer="Layer_1" />
  <defs
     id="defs4">
    <style
       id="style2">
      .cls-1 {
        fill: #0000cd;
      }

      .cls-2 {
        fill: #00ced1;
      }

      .cls-2, .cls-3, .cls-4 {
        stroke-miterlimit: 3.68;
      }

      .cls-2, .cls-3, .cls-4, .cls-5 {
        fill-rule: evenodd;
        stroke: #fff;
        stroke-width: .75px;
      }

      .cls-3 {
        fill: #1e90ff;
      }

      .cls-4, .cls-5 {
        fill: #32cd32;
      }
    </style>
  </defs>
  <path
     id="gt"
     class="cls-5"
     d="m.38,114.54c3.03-3.34,2.51-6.87,3.6-10.88.53-1.95,3.48-3.3,2.83-5.48-1.17-4.01-1.13-4.69,1.38-8.59,3.8-5.85,7-13.4,9.63-18.39,2.67-5.07,12.91-2.18,18.33-2.18,3.12,0,19.42,1.8,21.04-.64.53-.79,1.94-10.13,1.5-10.47-1.86-1.5-4.41-.83-5.02-3.64-.69-3.19-1.46-4.92-4.65-6.72-6.15-3.45-9.99-9.12-14.89-13.81,3.72,0,10.36,1.61,12.58-2.21,2.31-3.98-.53-10.02,2.67-13.43,3.4-3.68,18.7-1.24,23.59-1.24h28.16c-2.39,9.42-2.63,19.1-4.57,28.59-1.98,9.68-4.29,19.32-5.91,29.08,4.98-.49,15.58-.68,16.35,5.7.81-1.65,1.66-3.64,3.76-4.24-.65-.86-1.38-1.69-2.14-2.48,3.72,1.24,6.27,4.2,9.63,5.97-9.06,3.49-14.65,11.93-22.98,16.51-3.88,2.14-8.94,4.65-7.81,9.61.77,3.53,1.62,5.93-1.5,8.55-2.95,2.51-11.29,4.05-10.48,8.03.49,2.36-1.42,1.88-3.24,3.34-.36.26-3.48,4.13-3.03,3.94-3.68,1.54-12.91,2.06-11.05,9.12-4.37-1.76-8.3-4.73-13.11-5.48-4.9-.79-10.12.68-15.09.15-12.38-1.35-21.41-11.07-29.7-18.76"
     style="fill:#00ced1;fill-opacity:1" />
  <g
     id="pa"
     style="fill:#00ced1;fill-opacity:1">
    <path
       id="path2682"
       class="cls-4"
       d="m245.64,301.93c-2.59-2.29,3.97-5.18,4.41-7.32.89-4.09-3.64-8.52,2.43-10.96,4.98-1.99-4.17-4.84-4.17-6.57,0-3.53,2.99-11.86,2.14-13.25,3.56-3.26,6.96,4.28,9.39-.41,1.86,1.54,4.57,3.45,5.34,5.7,0,1.65-.08,3.3-.24,4.95.32,1.31,2.79-.15,2.59,1.76-.89,8.14,7.73,5.18,13.23,6.19-1.05-1.73-2.23-3.38-3.48-4.95,4.65-1.31,9.15,9.16,14.53,9.83,11.29,1.43,17.64-6.72,27.15-10.02,6.51-2.25,14.16-4.05,19.1-8.7,2.71-2.55,4.21-5.78,8.58-5.82,4.9,0,9.63,1.99,14.53,1.54-.89,1.01-1.7,2.1-2.43,3.23,9.55-.98,22.5,1.09,29.5,7.84,3.32,3.23,10.8,16.7,16.87,15.01-4.49,6.42.61,9.31,2.99,15.95,2.55,7.17-5.5,14.37-11.29,18.12-.61-1.84-1.62-3.49-2.95-4.95-1.94,2.66-.85,3.08-1.05,5.14-.2,2.14-2.79,4.01-4.49,8.74-7.28-4.88-13.96-16.62-14.32-24.84,6.11,2.1,4.01-4.69,6.6-7.28,2.87-2.85,10.48,4.2,12.99,5.52-1.66-1.91-4.01-3-6.07-4.5-2.87-2.14-2.35-5.7-4.13-8.44.73,2.1-.49,3.94-2.43,4.95,1.21-4.99-3.36.23-5.34-4.47.61,2.03.53,4.01-.24,5.97-3.12-5.29-3.28-10.66-8.34-13.36-2.27-1.24-4.45-2.66-6.47-4.2-3.64-2.74-1.82-2.59-6.03-2.36-5.79.3-15.66,1.46-17.32,8.29-1.25,5.22-9.35,14.15-16.27,13.09-10.89-1.65.85,13.32,3.28,15.8,1.86,1.91,5.87,5.82,3.6,8.63-2.02,2.51-6.68.86-9.19,2.93-3.28,2.7-10.84,6.9-15.46,4.54-1.09-.56-.69-7.43-1.42-9.12-1.42-3.26-.32-8.29-2.47-11.07-1.46,1.58-2.95,1.65-4.57.23,4.61,8.25-5.46,10.32-9.63,3.38-3.56-5.89-3.44-10.21-10.97-12.68-2.47-.83-4.98,1.2-6.64-1.28-2.1-3.08-4.9-.64-6.51-3.08-2.63,3.49-6.56-.19-9.91,1.5-3.76,1.88-1.09,5.93-3.76,8.22.28-3.04-.36-5.7-1.62-7.47"
       style="fill:#00ced1;fill-opacity:1" />
    <path
       id="path4792"
       class="cls-4"
       d="m261.71,302.64c0,1.8.65,1.73,1.86-.23-.73-.45-1.34-.34-1.86.23"
       style="fill:#00ced1;fill-opacity:1" />
    <path
       id="path4794"
       class="cls-4"
       d="m279.39,320.8c-1.7,1.58-4.57,2.78-3.68,5.55.73,2.29,3.24,3.75,5.58,2.14-1.74-2.33-1.17-5.14-1.86-7.69"
       style="fill:#00ced1;fill-opacity:1" />
    <path
       id="path4796"
       class="cls-4"
       d="m293.07,325.79c2.06-.56,3.84-1.58,5.34-2.96-2.06.56-3.84,1.58-5.34,2.96"
       style="fill:#00ced1;fill-opacity:1" />
    <path
       id="path4802"
       class="cls-4"
       d="m362.22,296.45c-2.67.41-2.99,3.3-2.43,5.22,3.76.53,3.08-3.15,2.43-5.22"
       style="fill:#00ced1;fill-opacity:1" />
  </g>
  <path
     id="cr"
     class="cls-3"
     d="m168.19,239.53c1.58-1.2,5.87-6.75,6.19-8.63.49-3-6.76-6.64-4.01-8.14,3.24-1.76,4.09-4.35,6.31-7.77.89-1.35,11.57,3.45,13.11,4.16,7.49,3.45,6.51,1.2,13.48-.6,3.08-.79,4.41,3.6,9.47,2.78,2.27,2.78,3.03,5.4,7,6.08,4.98.86,12.14,1.05,11.9-3.86,2.19,3.45,0,4.05,2.19,7.05,1.78,2.51,2.87,5.48,4.05,8.25,2.51,5.89,5.02,7.95,9.27,11.86,3.84,3.53,5.83,9.23,10.72,11.56,2.67,1.28,2.27,4.01-1.05,3.08-2.55-.71-3.16-3.56-6.35-1.46,1.42,2.33-1.7,7.95-1.82,11.78-.12,3.94,10.16,5.25,3.16,8.63-5.62,2.74,1.94,8.59-2.95,12.57-5.42,4.39-.32,7.02-1.46,12.42.32-2.74-.97-4.84-2.87-6.83-1.21-.75-2.31-1.65-3.32-2.63.32-1.05.61-2.06.85-3.11-1.05-3.3-5.14-10.54-9.99-7.8.93,4.01,6.51,5.48,4.82,10.21-4.01-1.16-10.24-2.44-11.21-7.05-.65-3,3.68-5.29,3.97-8.37.73-7.58-8.17-10.43-13.43-14.26-3.2-2.33-4.01-3.94-8.46-4.05-4.37-.11-6.96-2.1-6.76-6.34.45-10.06-12.46-10.02-16.63-17.11.85,1.91,1.01,3.98,1.78,5.93,1.21,3.08,4.17,2.7,6.47,4.54,3.2,2.55-.61,7.77-3.56,8.82-3.6,1.31-6.64-5.74-10.56-6.53-6.56-1.35-11.53-8.93-10.2-15.23"
     style="fill:#32cd32;fill-opacity:1" />
  <path
     id="sv"
     class="cls-4"
     d="m58.28,138.63c-.81-3,.24-4.35,2.31-6.08,3.08-2.63,5.83-1.58,8.5-3.15.36-.23,2.75-4.24,5.79-5.48,1.17-.49.2-2.21.49-3.56.69-2.96,5.99-1.8,8.09-1.28,3.48.9,22.34,11.82,20.44,15.83,3.84,0,12.42-6.6,13.68,0,3.32-2.03,9.1-.71,7.53,3.53-.32.9-3.03,13.13-4.05,9.38-2.75,3.45,2.79,6.27-4.82,8.22-7.2,1.84-12.46-4.73-18.78-3.23,7,1.76-3.64.94-5.38.19-4.37-1.88-8.01-5.14-12.67-6.45-4.37-1.2-9.39.49-13.56-1.43-2.47-1.16-4.77-4.92-7.49-6.45"
     style="fill:#1e90ff;fill-opacity:1" />
  <g
     id="hn">
    <path
       id="path5978"
       class="cls-2"
       d="m81.59,118.03c2.02-4.65,8.58-5.7,5.42-11.52-1.74-3.26,3.16-8.25,5.87-9.42,6.31-2.63,11.25-7.69,16.35-12.01,2.02-1.69,4.69-3.19,7.04-4.5,2.71-1.5,4.25.56,6.47-1.84,3.03-3.34,9.95-6.27,13.6-2.89,2.63,2.48,15.62,2.78,19.5,2.44,5.42-.45,13.72.75,18.41-2.03,1.66-.98,14.12-3.56,7.28-5.52,6.11-.19,11.37,3.38,17.44,3.49,6.27.11,13.52-4.13,19.14.45,4.77,3.9,7.49,0,12.22,2.29,5.54,2.63,8.42,8.67,12.58,12.68-1.94-.9-3.76-3.71-6.11-3.71s-4.33.38-6.19-1.24c1.78.94,1.9,2.85,2.35,4.43.32,1.16,3.88,3.68,4.9,4.77.73-1.99-.24-3.3-2.43-3.71,2.59-2.59,6.72,4.88,11.78,2.48.32,1.65.89,2.25-.24,3.71,5.42-1.28.49-4.62-2.14-5.48,8.7,1.13,7.04,7.95,13.92,10.43-4.9.79-9.43,0-13.76,2.78-3.76,2.44-11.53,4.8-16.15,4.69-3.64-.08-7,3.53-10.12,2.66-2.23-.6-4.29-1.39-6.31-2.44-.93-.49-1.01-2.25-1.94-2.4-5.1-.98-5.62,5.07-7.45,7.62-1.17,1.65-3.24,2.48-4.29,4.24-.57.98.77,2.66-.24,3.34-3.72,2.51-15.42,8.59-17.2,14.33-8.13-4.8-9.75-9.01-14.97-.83-3.64,5.67-14.69.45-14.12,5.44.57,4.92,2.91,10.66-3.36,11.63-3.32.53-2.75,3.83-3.64,6-1.54,3.83-7.28,2.44-10.56,2.85,2.43-3.68-9.67-8.7-1.05-11.67-2.63.83-6.19.79-6.72-2.48-.77,2.78-3.24,3.53-5.62,1.73,3.2-.98,2.59-4.05,2.79-6.45.24-3.94,4.13-8.33-3.32-8.37-2.47,1.8-3.76,1.46-3.97-1.01-.77-.86-1.74-1.24-2.95-1.05-3.48.38-6.43,2.93-9.95,2.96,2.63-5.52-19.55-14.33-22.26-16.88" />
    <path
       id="path6082"
       class="cls-2"
       d="m165.24,63.1c3.24-1.99,6.84-3.45,10.44-4.73-3.76,0-8.58,1.43-10.44,4.73" />
  </g>
  <path
     id="ni"
     class="cls-4"
     d="m126.91,159.01c3.36,1.31,3.48,4.62,7.77,4.24.61-.94-1.25-1.88.49-2.14,1.78-.23,6.6-.45,8.21-.9,3.52-.98,1.29-5.48,3.8-7.09,1.86-1.2,4.77-.26,5.26-2.74.57-3.11-2.43-9.49-.28-11.97,1.94-2.29,6.43-.45,8.86-.15,3.08.38,4.33-2.14,6.07-4.09,6.56-7.2,7.41-2.06,14.28,1.99,1.13-6.04,9.91-10.09,15.34-14.3,3.68-.23-.2-2.66,4.05-5.97,3.2-2.48,3.12-6.53,6.56-8.93,3.88-2.7,5.38,1.8,8.54,3.45,4.61,2.36,6.76-.23,11.13-1.58,4.73-1.5,12.99-1.99,17.4-4.2,1.98-1.01,3.6-2.74,5.91-3.23,2.87-.6,5.71.45,8.58,0-2.43,1.09-3.76,5.89-6.96,3.23-3.03,4.88,4.73,12.91,2.14,19.14-2.51,6.04-7.73,9.49-9.87,16.06-2.67,8.18-1.58,16.36-3.03,24.65-.69,4.01,1.17,14.63-4.01,15.23.16-4.69,3.03-8.14,2.14-13.17-3.4.79-.12,6.53-6.43,8.44,4.29,5.14,1.13,10.47,1.34,16.17-.97-1.54-1.25-3.23-.81-4.95-.61,3.41-2.95,6.42-2.95,9.94,6.92-2.29,1.46,6.27.12,8.37-3.28,4.99-5.62,10.81-1.42,16.32,1.86,2.48,5.38,4.73-.28,6.83-3.32,1.24-8.98,1.01-11.86-1.09-.85-.68-1.58-1.46-2.19-2.36-2.43-3.3-1.58-2.1-4.82-2.63-2.51-.41-4.05-3.19-6.76-2.66-2.19.41-4.21,1.13-6.11,2.06-1.21.6-4.33-.38-5.91-1.01-8.13-3.34-11.78-4.95-12.91-5.03-.57,0-2.71-.23.85-.79,2.27.34,26.34,12.12,20.03-3.34-1.29-1.31-7.04-11.03-8.3-12.23-1.21-1.16-8.62-5.82-9.39-7.69-.81-1.99-6.84-3.26-8.05-3.08-4.98.79-1.74,13.92-2.75,12.46,1.17,1.13,3.97,11.93,8.42,13.88-.61,0,.16,1.09-1.05.75-3.2-.98-2.43,9.16-6.84.26-2.47-4.99-7.69-8.4-11.82-12.08-8.13-7.24-11.53-17.15-20.27-24.16-5.58-4.5-17.64-13.4-12.18-19.81"
     style="fill:#00ced1;fill-opacity:1" />
  <path
     id="path3183"
     class="cls-1"
     d="m94.74,62.88c1.29-5.78,3.48-18.05,4.94-27.28,1.42-9.23,2.91-17.71,3.28-18.84.81-2.36,3.16-2.66,5.3-.68,1.78,1.65,1.21,2.18,7-6.83,5.67-8.74,8.46-11.29,8.46-7.65,0,1.88.69,2.4,2.83,2.21,2.43-.23,2.79.19,2.43,3-.24,1.8-1.78,6.87-3.44,11.26s-3.52,12.72-4.13,18.5c-1.34,12.31-5.14,19.55-12.95,24.73-2.67,1.76-6.19,5.18-7.77,7.58-1.86,2.78-3.88,4.39-5.58,4.39h-2.67l2.31-10.47v.08h-.01Z" />
</svg>
