<svg width="911" height="299" viewBox="0 0 911 299" fill="none" xmlns="http://www.w3.org/2000/svg">
<g clip-path="url(#clip0_91_104)">
<path d="M345.241 163.643C343.712 163.643 342.507 163.203 341.654 162.352C340.802 161.501 340.361 160.298 340.361 158.772V155.016C340.361 153.725 340.567 152.493 340.949 151.349C341.331 150.204 342.066 148.884 343.154 147.358L396.387 69.6004C396.711 69.0722 396.74 68.5734 396.475 68.1333C396.211 67.6931 395.682 67.4877 394.918 67.4877H350.179C348.65 67.4877 347.475 67.0476 346.593 66.1967C345.711 65.3457 345.299 64.1427 345.299 62.6169V57.7167C345.299 56.1909 345.74 55.0172 346.593 54.1369C347.445 53.2566 348.65 52.8458 350.179 52.8458H413.701C415.229 52.8458 416.405 53.286 417.287 54.1369C418.169 54.9878 418.58 56.1909 418.58 57.7167V61.2965C418.58 62.5875 418.286 63.9079 417.698 65.199C417.081 66.4901 416.346 67.8105 415.494 69.1016L362.613 146.36C362.054 147.123 361.937 147.739 362.201 148.238C362.466 148.737 363.113 148.972 364.083 148.972H415.347C416.875 148.972 418.051 149.412 418.933 150.263C419.815 151.143 420.226 152.317 420.226 153.843V158.743C420.226 160.269 419.785 161.442 418.933 162.323C418.081 163.203 416.875 163.614 415.347 163.614H345.299L345.241 163.643Z" fill="#010202"/>
<path d="M475.841 163.643C474.313 163.643 473.137 163.203 472.255 162.352C471.373 161.501 470.962 160.298 470.962 158.772V57.7167C470.962 56.1909 471.402 55.0172 472.255 54.1369C473.107 53.2566 474.313 52.8458 475.841 52.8458H529.722C531.25 52.8458 532.455 53.286 533.308 54.1369C534.16 54.9878 534.601 56.1909 534.601 57.7167V62.6169C534.601 64.1427 534.16 65.3457 533.308 66.1967C532.455 67.0476 531.25 67.4877 529.722 67.4877H488.099C487.011 67.4877 486.453 68.0452 486.453 69.1309V98.4734C486.453 99.5591 486.982 100.117 488.099 100.117H526.459C527.987 100.117 529.163 100.557 530.045 101.408C530.897 102.288 531.338 103.462 531.338 104.987V109.888C531.338 111.413 530.897 112.616 530.045 113.467C529.192 114.318 527.958 114.758 526.459 114.758H488.099C487.011 114.758 486.453 115.316 486.453 116.402V147.387C486.453 148.473 486.982 149.031 488.099 149.031H532.984C534.513 149.031 535.689 149.471 536.57 150.322C537.452 151.202 537.864 152.376 537.864 153.901V158.802C537.864 160.327 537.423 161.501 536.57 162.381C535.718 163.262 534.513 163.672 532.984 163.672H475.841V163.643Z" fill="#010202"/>
<path d="M595.037 163.643C593.508 163.643 592.332 163.203 591.45 162.352C590.569 161.501 590.157 160.298 590.157 158.772V57.7167C590.157 56.1909 590.598 55.0172 591.45 54.1369C592.303 53.2566 593.508 52.8458 595.037 52.8458H622.785C627.136 52.8458 631.251 53.6381 635.131 55.1932C638.982 56.7777 642.362 58.9491 645.243 61.7073C648.123 64.4655 650.416 67.7518 652.092 71.5663C653.797 75.3809 654.62 79.4301 654.62 83.7728C654.62 87.6754 653.914 91.3432 652.503 94.6882C651.092 98.0626 649.123 101.144 646.624 103.96C645.654 105.046 645.742 106.073 646.948 107.041C651.504 110.416 655.031 114.172 657.471 118.368C659.911 122.534 661.145 127.317 661.145 132.628C661.145 137.088 660.293 141.196 658.617 144.923C656.912 148.678 654.649 151.935 651.768 154.694C648.888 157.452 645.507 159.652 641.656 161.208C637.806 162.792 633.691 163.584 629.34 163.584H595.037V163.643ZM621.639 100.909C623.608 100.909 625.607 100.557 627.665 99.8525C629.722 99.1483 631.604 98.1213 633.308 96.7715C634.984 95.4218 636.365 93.6319 637.453 91.4605C638.541 89.2892 639.099 86.7364 639.099 83.8022C639.099 80.8679 638.541 78.3738 637.453 76.3198C636.365 74.2658 634.984 72.564 633.308 71.2729C631.604 69.9818 629.752 69.0135 627.665 68.4267C625.607 67.8398 623.579 67.5464 621.639 67.5464H607.265C606.177 67.5464 605.619 68.1039 605.619 69.1896V99.3537C605.619 100.439 606.148 100.997 607.265 100.997H621.639V100.909ZM628.164 148.972C630.134 148.972 632.133 148.678 634.19 148.062C636.248 147.475 638.129 146.507 639.834 145.216C641.51 143.925 642.891 142.223 644.008 140.169C645.096 138.115 645.654 135.621 645.654 132.687C645.654 129.753 645.096 127.2 644.008 125.028C642.92 122.857 641.539 121.096 639.834 119.747C638.129 118.397 636.277 117.37 634.19 116.666C632.103 115.962 630.104 115.609 628.164 115.609H607.265C606.177 115.609 605.619 116.167 605.619 117.253V147.417C605.619 148.502 606.148 149.06 607.265 149.06H628.164V148.972Z" fill="#010202"/>
<path d="M774.579 163.643C771.846 163.643 769.847 162.176 768.553 159.242L749.3 117.839C748.653 116.314 747.507 115.551 745.861 115.551H730.37C729.282 115.551 728.724 116.108 728.724 117.194V158.743C728.724 160.269 728.283 161.442 727.43 162.323C726.548 163.203 725.343 163.614 723.844 163.614H718.141C716.613 163.614 715.408 163.174 714.555 162.323C713.673 161.442 713.262 160.269 713.262 158.743V57.7167C713.262 56.1909 713.703 55.0172 714.555 54.1369C715.408 53.2566 716.613 52.8458 718.141 52.8458H751.622C755.972 52.8458 760.058 53.6381 763.88 55.1932C767.671 56.7777 770.964 58.9491 773.756 61.7073C776.549 64.4655 778.724 67.7518 780.282 71.5663C781.84 75.3809 782.633 79.4301 782.633 83.7728C782.633 89.9641 781.164 95.4511 778.195 100.234C775.226 105.017 771.493 108.655 766.966 111.149C765.232 112.118 764.85 113.702 765.82 115.874L785.396 157.775C786.161 159.418 786.22 160.797 785.573 161.941C784.926 163.086 783.78 163.643 782.134 163.643H774.638H774.579ZM750.564 100.909C752.739 100.909 754.826 100.498 756.854 99.6764C758.853 98.8549 760.646 97.6811 762.145 96.1847C763.644 94.6882 764.908 92.8396 765.82 90.727C766.731 88.6143 767.201 86.2963 767.201 83.8022C767.201 81.308 766.731 79.0487 765.82 77.024C764.908 75.0287 763.674 73.2975 762.145 71.8891C760.617 70.4807 758.853 69.395 756.854 68.6321C754.826 67.8692 752.739 67.4877 750.564 67.4877H730.487C729.4 67.4877 728.841 68.0452 728.841 69.1309V99.295C728.841 100.381 729.37 100.938 730.487 100.938H750.564V100.909Z" fill="#010202"/>
<path d="M905.386 163.643C904.298 164.523 903.064 164.875 901.711 164.787C900.359 164.67 899.066 164.289 897.861 163.643L850.359 135.944C849.595 135.504 848.918 135.504 848.301 135.944C847.684 136.384 847.302 136.912 847.067 137.587L840.365 159.741C839.6 162.352 837.749 163.643 834.809 163.643H826.814C823.668 163.643 822.522 162.117 823.374 159.095L856.032 57.2472C856.561 55.516 857.296 54.3423 858.237 53.7261C859.177 53.1099 860.382 52.8458 861.911 52.8458H873.345C874.874 52.8458 876.109 53.1392 877.02 53.7261C877.931 54.3129 878.695 55.4866 879.224 57.2472L910.412 154.694C911.176 157.188 910.735 159.154 909.119 160.562L905.356 163.643H905.386ZM869.318 73.5323C868.995 72.3292 868.437 71.7424 867.672 71.7424C866.908 71.7424 866.379 72.3292 866.026 73.5323L853.151 116.548C852.71 117.957 852.652 119.013 852.975 119.717C853.298 120.422 853.857 120.979 854.621 121.419L885.309 139.347C886.514 140.11 887.367 140.198 887.925 139.582C888.484 138.995 888.631 138.321 888.425 137.558L869.318 73.5029V73.5323Z" fill="#010202"/>
<path d="M28.0131 141.02C28.2777 140.022 28.4246 139.025 28.8656 138.086C29.1301 137.499 30.0707 136.472 30.4235 136.472C31.6581 136.501 33.5687 136.677 33.7745 137.235C37.243 147.006 47.0315 153.373 57.2314 159.887C97.2376 185.445 140.154 212.997 186.303 242.897C205.498 255.309 214.375 272.68 213.758 294.628C213.758 295.42 212.906 296.887 212.494 296.887C210.936 296.829 208.379 296.682 207.997 295.919C200.913 281.512 187.656 272.562 174.457 263.789C127.338 232.569 83.8336 203.549 43.5629 176.583C29.6886 167.282 24.9855 155.163 28.0131 141.049V141.02Z" fill="#010202"/>
<path d="M174.487 296.799C172.547 296.917 171.547 297.005 170.548 297.005C157.644 297.005 144.739 297.093 131.865 296.946C129.983 296.946 127.837 296.3 126.456 295.332C93.3869 271.594 62.2285 249.088 32.7163 227.815C16.5198 216.137 11.1994 201.289 16.4904 183.596C16.755 182.745 17.6956 181.425 18.5186 181.19C20.3411 180.72 21.7521 181.073 22.3105 182.686C24.3682 188.819 28.1895 194.306 33.9214 198.825C38.0955 202.111 42.6811 205.163 47.2078 208.332C85.6267 235.004 126.897 263.613 171.342 294.423C172.194 295.009 172.988 295.684 174.487 296.829V296.799Z" fill="#010202"/>
<path d="M78.8071 296.799C76.9553 296.917 76.044 297.005 75.1622 297.005C62.0228 297.005 48.8833 297.005 35.7733 297.005C34.5681 297.005 33.069 296.946 32.3635 296.33C24.8679 290.168 16.755 284.622 10.6409 277.785C-0.293956 265.55 -2.46916 250.878 2.49854 235.004C2.79249 234.094 3.7919 232.627 4.58556 232.451C6.46682 232.011 8.14232 232.128 8.73021 234.065C11.2582 242.34 16.3728 249.411 24.0154 255.192C30.5117 260.121 37.1255 265.109 43.7981 270.127C54.4095 278.108 65.2268 286.265 76.2498 294.599C76.9553 295.127 77.5725 295.743 78.8071 296.829V296.799Z" fill="#010202"/>
<path d="M168.196 4.5618e-05C140.271 54.313 136.421 106.044 162.935 159.799C156.086 154.195 148.708 149.119 142.505 142.898C120.195 120.539 102.44 95.011 94.1511 64.2014C83.9218 26.1735 97.414 6.36737 136.186 1.26177C145.68 0.0293881 155.41 0.440183 168.196 -0.0292969V4.5618e-05Z" fill="#010202"/>
<path d="M229.043 96.5074C247.65 120.392 267.021 143.749 284.217 168.602C287.862 173.854 285.775 185.767 282.306 192.575C276.222 204.546 254.793 210.503 239.831 206.63C224.399 202.639 215.463 191.518 216.11 176.642C217.285 150.468 221.224 124.441 223.987 98.3267C225.663 97.7105 227.338 97.1236 229.014 96.5074H229.043Z" fill="#010202"/>
<path d="M179.66 142.575C177.338 107.687 175.133 74.9701 172.899 41.4904C208.996 63.996 211.054 93.3092 179.66 142.575Z" fill="#010202"/>
<path d="M57.3784 75.5569C57.8781 74.5006 58.2015 73.3562 58.9069 72.3879C59.3479 71.8011 60.6118 71.0088 60.994 71.1849C62.4049 71.8011 64.5801 72.8574 64.6977 73.591C66.8729 86.7657 76.7789 98.5027 86.8613 110.298C124.428 154.224 161.436 197.71 197.885 240.784C212.112 257.598 216.404 276.318 211.906 297.093C211.73 297.856 210.789 299.059 210.437 298.971C209.143 298.619 207.027 297.973 206.85 297.151C203.441 281.893 193.652 270.274 183.629 258.595C145.651 214.406 107.349 169.57 68.666 124.207C54.5565 107.628 51.2937 91.1671 57.349 75.5863L57.3784 75.5569Z" fill="#010202"/>
<path d="M348.062 215.433H337.186V245.098H339.95V234.27H347.504C353.295 234.27 359.174 231.307 359.174 224.705V224.617C359.174 219.042 354.823 215.433 348.062 215.433ZM356.411 224.734V224.822C356.411 228.93 352.883 231.659 347.651 231.659H339.979V218.015H347.915C353.236 218.015 356.44 220.538 356.44 224.734H356.411Z" fill="#010202"/>
<path d="M408.939 224.089V224.001C408.939 221.888 408.116 219.834 406.646 218.367C404.735 216.46 401.767 215.403 398.239 215.403H385.717V245.069H388.48V233.038H397.563L406.764 244.951L406.852 245.069H410.379L400.708 232.569C405.882 231.688 408.968 228.549 408.968 224.059L408.939 224.089ZM388.48 218.015H398.122C403.148 218.015 406.176 220.274 406.176 224.059V224.147C406.176 227.991 402.972 230.485 398.004 230.485H388.51V218.015H388.48Z" fill="#010202"/>
<path d="M450.238 214.934C440.861 214.934 435.247 222.739 435.247 230.28V230.368C435.247 239.053 441.655 245.626 450.15 245.626C459.498 245.626 465.083 237.88 465.141 230.397C465.171 230.309 465.171 230.221 465.141 230.133C465.083 221.477 458.704 214.963 450.238 214.963V214.934ZM462.29 230.25V230.339C462.29 237.557 457.117 243.014 450.238 243.014C443.36 243.014 438.098 237.41 438.098 230.25V230.162C438.098 222.915 443.272 217.457 450.15 217.457C457.029 217.457 462.29 223.062 462.29 230.221V230.25Z" fill="#010202"/>
<path d="M502.649 215.433H492.655V245.098H502.649C511.791 245.098 518.405 238.848 518.405 230.28V230.192C518.405 221.653 511.761 215.433 502.649 215.433ZM515.583 230.251V230.339C515.583 237.498 510.262 242.486 502.678 242.486H495.447V218.015H502.678C510.174 218.015 515.583 223.15 515.583 230.251Z" fill="#010202"/>
<path d="M567.17 232.715C567.17 239.259 563.761 242.985 557.794 242.985C551.826 242.985 548.24 239.171 548.24 232.51V215.433H545.448V232.715C545.448 240.638 550.151 245.567 557.705 245.567C565.26 245.567 569.934 240.55 569.934 232.481V215.433H567.17V232.715Z" fill="#010202"/>
<path d="M621.668 238.584C618.493 241.723 615.642 243.015 611.85 243.015C605.119 243.015 599.857 237.41 599.857 230.251V230.163C599.857 222.915 605.001 217.457 611.821 217.457C616.465 217.457 619.287 219.57 621.433 221.653L621.639 221.859L623.608 219.834L623.373 219.629C620.257 216.782 617.112 214.904 611.85 214.904C603.502 214.904 596.977 221.653 596.977 230.251V230.339C596.977 239.024 603.326 245.597 611.762 245.597C617.494 245.597 620.933 242.985 623.549 240.432L623.785 240.227L621.874 238.378L621.668 238.584Z" fill="#010202"/>
<path d="M672.315 238.584C669.141 241.723 666.289 243.015 662.497 243.015C655.766 243.015 650.504 237.41 650.504 230.251V230.163C650.504 222.915 655.648 217.457 662.468 217.457C667.112 217.457 669.934 219.57 672.08 221.653L672.286 221.859L674.255 219.834L674.02 219.629C670.904 216.782 667.759 214.904 662.497 214.904C654.149 214.904 647.624 221.653 647.624 230.251V230.339C647.624 239.024 653.973 245.597 662.409 245.597C668.141 245.597 671.58 242.985 674.196 240.432L674.432 240.227L672.521 238.378L672.315 238.584Z" fill="#010202"/>
<path d="M703.444 215.433H700.652V245.098H703.444V215.433Z" fill="#010202"/>
<path d="M746.243 214.934C736.866 214.934 731.251 222.739 731.251 230.28V230.368C731.251 239.053 737.659 245.626 746.155 245.626C755.502 245.626 761.087 237.88 761.146 230.397C761.175 230.309 761.175 230.221 761.146 230.133C761.087 221.477 754.708 214.963 746.243 214.963V214.934ZM758.295 230.25V230.339C758.295 237.557 753.121 243.014 746.243 243.014C739.364 243.014 734.103 237.41 734.103 230.25V230.162C734.103 222.915 739.276 217.457 746.155 217.457C753.033 217.457 758.295 223.062 758.295 230.221V230.25Z" fill="#010202"/>
<path d="M810.764 240.139L791.217 215.55L791.129 215.433H788.63V245.098H791.334V219.834L811.293 244.981L811.381 245.098H813.468V215.433H810.764V240.139Z" fill="#010202"/>
<path d="M845.038 231.454H861.705V228.842H845.038V218.015H863.586V215.433H842.246V245.098H863.792V242.486H845.038V231.454Z" fill="#010202"/>
<path d="M901.182 228.871C894.274 227.463 892.952 225.673 892.952 222.827V222.739C892.952 219.746 895.803 217.575 899.771 217.575C903.063 217.575 905.68 218.572 908.237 220.773L908.472 220.978L910.236 218.807L910.001 218.602C906.826 216.049 903.886 214.992 899.83 214.992C894.333 214.992 890.159 218.396 890.159 222.915V223.003C890.159 227.58 893.069 230.045 900.212 231.483C906.914 232.833 908.208 234.593 908.208 237.381V237.469C908.208 240.696 905.297 242.926 901.153 242.926C897.008 242.926 894.216 241.753 890.923 238.701L890.688 238.496L888.866 240.579L889.101 240.784C892.746 244.042 896.45 245.509 901.035 245.509C906.885 245.509 911 242.134 911 237.293V237.205C911 232.774 908.06 230.309 901.182 228.901V228.871Z" fill="#010202"/>
</g>
<defs>
<clipPath id="clip0_91_104">
<rect width="911" height="299" fill="white"/>
</clipPath>
</defs>
</svg>
